<svg viewBox="0 0 69 24" xmlns="http://www.w3.org/2000/svg" class="arrc-logo"><g><path d="M69 17.13C69 17.55 68.66 17.89 68.23 17.89C67.8 17.89 67.47 17.56 67.47 17.14C67.47 16.71 67.8 16.38 68.24 16.38C68.67 16.38 69 16.7 69 17.13ZM68.9 17.13C68.9 16.76 68.62 16.47 68.24 16.47C67.86 16.47 67.57 16.76 67.57 17.13C67.57 17.5 67.86 17.79 68.23 17.79C68.61 17.79 68.9 17.5 68.9 17.13M68.44 17.26L68.63 17.55H68.48L68.31 17.29H68.28H68.08V17.55H67.94V16.72H68.28C68.49 16.72 68.62 16.83 68.62 17C68.62 17.13 68.55 17.22 68.44 17.26M68.48 17C68.48 16.89 68.4 16.83 68.26 16.83H68.07V17.17H68.26C68.4 17.17 68.48 17.11 68.48 17Z" fill="#ffffff"></path><path d="M13.4 12.18H3.53L1.34 16.91H0L7.86 0.12H9.1L16.93 16.91H15.59L13.4 12.19V12.18ZM12.94 11.16L8.47 1.47L4.01 11.16H12.94Z" fill="#ffffff"></path><path d="M31.84 16.91L27.78 11.3C27.24 11.37 26.71 11.42 26.12 11.42H21.26V16.91H20.02V0.12H26.13C30.41 0.12 32.99 2.23 32.99 5.78C32.99 8.44 31.53 10.29 29 11.03L33.25 16.91H31.84L31.84 16.91ZM26.12 10.34C29.77 10.34 31.72 8.66 31.72 5.78C31.72 2.88 29.78 1.22 26.12 1.22H21.26V10.34H26.12Z" fill="#ffffff"></path><path d="M49.35 16.91L45.29 11.3C44.75 11.37 44.22 11.42 43.63 11.42H38.77V16.91H37.53V0.12H43.64C47.92 0.12 50.5 2.23 50.5 5.78C50.5 8.44 49.04 10.29 46.51 11.03L50.76 16.91H49.35V16.91ZM43.63 10.34C47.28 10.34 49.23 8.66 49.23 5.78C49.23 2.88 47.28 1.22 43.63 1.22H38.77V10.34H43.63Z" fill="#ffffff"></path><path d="M53.41 8.52C53.41 3.62 57.18 0 62.24 0C64.64 0 66.81 0.77 68.3 2.33L67.52 3.12C66.06 1.7 64.28 1.13 62.29 1.13C57.94 1.13 54.66 4.3 54.66 8.52C54.66 12.74 57.94 15.9 62.29 15.9C64.28 15.9 66.06 15.3 67.52 13.89L68.3 14.68C66.81 16.24 64.65 17.03 62.24 17.03C57.18 17.03 53.41 13.41 53.41 8.51" fill="#ffffff"></path><g><path d="M15.91 15.71H8.07V16.91H15.91V15.71Z" fill="#ffffff"></path><path d="M11.99 19.22H4.15V20.42H11.99V19.22Z" fill="#ffffff"></path><path d="M9.38 22.72H1.54V23.92H9.38V22.72Z" fill="#ffffff"></path></g><g><path d="M22.22 23.95L21.93 23.12H20.76L20.47 23.95H20.08L21.16 21.06H21.52L22.6 23.95H22.22H22.22ZM21.34 21.5L20.87 22.82H21.82L21.35 21.5H21.34Z" fill="#ffffff"></path><path d="M25.22 22.81V23.95H24.85V21.06H25.95C26.23 21.06 26.46 21.14 26.63 21.3C26.8 21.45 26.89 21.66 26.89 21.92C26.89 22.12 26.83 22.3 26.73 22.44C26.63 22.59 26.49 22.69 26.3 22.75L26.98 23.95H26.55L25.92 22.81H25.22H25.22ZM25.22 21.38V22.49H25.92C26.1 22.49 26.25 22.44 26.35 22.35C26.45 22.25 26.51 22.12 26.51 21.94C26.51 21.76 26.45 21.63 26.35 21.54C26.24 21.44 26.09 21.39 25.9 21.39H25.22V21.38Z" fill="#ffffff"></path><path d="M29.62 22.81V23.95H29.25V21.06H30.35C30.64 21.06 30.87 21.14 31.03 21.3C31.2 21.45 31.29 21.66 31.29 21.92C31.29 22.12 31.24 22.3 31.14 22.44C31.03 22.59 30.89 22.69 30.7 22.75L31.38 23.95H30.95L30.33 22.81H29.63H29.62ZM29.62 21.38V22.49H30.32C30.51 22.49 30.65 22.44 30.75 22.35C30.86 22.25 30.91 22.12 30.91 21.94C30.91 21.76 30.86 21.63 30.75 21.54C30.64 21.44 30.49 21.39 30.31 21.39H29.62V21.38Z" fill="#ffffff"></path><path d="M35.56 23.95L35.26 23.12H34.1L33.8 23.95H33.42L34.5 21.06H34.86L35.94 23.95H35.55H35.56ZM34.68 21.5L34.21 22.82H35.16L34.69 21.5H34.68Z" fill="#ffffff"></path><path d="M39.3 23.95H38.19V21.06H39.3C39.55 21.06 39.76 21.13 39.91 21.26C40.06 21.4 40.14 21.57 40.14 21.79C40.14 21.94 40.09 22.07 40 22.19C39.9 22.31 39.78 22.39 39.63 22.42V22.43C39.84 22.46 40 22.53 40.11 22.66C40.23 22.79 40.29 22.95 40.29 23.14C40.29 23.4 40.2 23.6 40.03 23.74C39.85 23.88 39.61 23.95 39.3 23.95ZM38.55 21.38V22.31H39.1C39.32 22.31 39.49 22.27 39.6 22.19C39.72 22.11 39.77 21.99 39.77 21.83C39.77 21.69 39.73 21.58 39.63 21.5C39.53 21.43 39.4 21.39 39.22 21.39H38.56L38.55 21.38ZM38.55 23.63H39.24C39.68 23.63 39.9 23.46 39.91 23.12C39.91 22.79 39.67 22.62 39.21 22.62H38.55V23.63Z" fill="#ffffff"></path><path d="M45.75 21.06V22.92C45.75 23.06 45.77 23.19 45.84 23.31C45.9 23.42 45.99 23.51 46.11 23.57C46.23 23.64 46.37 23.67 46.54 23.67C46.71 23.67 46.86 23.63 46.98 23.57C47.1 23.51 47.18 23.42 47.25 23.31C47.31 23.19 47.34 23.06 47.34 22.92V21.06H47.7V22.94C47.7 23.14 47.66 23.33 47.56 23.49C47.47 23.64 47.34 23.77 47.16 23.86C46.99 23.95 46.78 24 46.54 24C46.3 24 46.09 23.95 45.92 23.86C45.75 23.77 45.61 23.64 45.52 23.49C45.43 23.32 45.38 23.14 45.38 22.94V21.06H45.75Z" fill="#ffffff"></path><path d="M50.55 23.95H50.18V21.06H50.54L52.14 23.33H52.16V21.06H52.52V23.95H52.17L50.56 21.69H50.55V23.95Z" fill="#ffffff"></path><path d="M55.37 23.95H55V21.06H55.37V23.95Z" fill="#ffffff"></path><path d="M58.95 23.95H58.59V21.39H57.66V21.06H59.88V21.39H58.96V23.95H58.95Z" fill="#ffffff"></path><path d="M63.99 23.63V23.95H62.17V21.06H63.99V21.39H62.54V22.32H63.92V22.63H62.54V23.63H63.99Z" fill="#ffffff"></path><path d="M66.38 21.06H67.36C67.8 21.06 68.14 21.19 68.38 21.45C68.63 21.7 68.75 22.05 68.75 22.51C68.75 22.96 68.63 23.32 68.38 23.57C68.14 23.82 67.8 23.95 67.36 23.95H66.38V21.06ZM66.75 21.39V23.63H67.34C67.67 23.63 67.93 23.53 68.11 23.34C68.29 23.14 68.38 22.87 68.38 22.51C68.38 22.15 68.29 21.87 68.11 21.68C67.93 21.48 67.68 21.39 67.35 21.39H66.75H66.75Z" fill="#ffffff"></path></g></g></svg>
